# xmcd
#
# Track frame offsets:
#	150
#	21640
#	33507
#	45590
#	55042
#	66277
#	87955
#	108390
#	120215
#	139787
#	152220
#	171832
#	190462
#	208925
#	219797
#	231840
#	250710
#	272762
#	284805
#	306087
#
# Disc length: 4231 seconds
#
# Revision: 1
# Processed by: cddbd v1.5.1PL0 Copyright (c) Steve Scherf et al.
# Submitted via: audiograbber 1.83.01
#
DISCID=28108514
DTITLE=Various Artist - Music Maestro Country Club Pack 1 [CD2 of 5) - MMCOU102
DYEAR=1900
DGENRE=Country
TTITLE0=Deana Carter - Strawberry Wine
TTITLE1=Garth Brooks - Two Of A Kind, Working On A Full House
TTITLE2=Patti Loveless - Chains
TTITLE3=Elvis Presley - All Shook Up
TTITLE4=Alan Jackson - She's Got The Rhythm
TTITLE5=Robin Lee - Black Velvet
TTITLE6=Reba McEntire and Linda Ronstadt - Does He Love You
TTITLE7=Travis Tritt - Here's A Quarter
TTITLE8=Reba McEntire - You Lie
TTITLE9=Lorrie Morgan - What Part Of No
TTITLE10=Tim McGraw - Don't Take The Girl
TTITLE11=Juice Newton - Sweetest Thing, The
TTITLE12=Garth Brooks - Beaches Of Cheyenne, The
TTITLE13=Charlie Pride - Is Anybody Going To San Antoné
TTITLE14=Elvis Presley - I Forgot To Remember To Forget
TTITLE15=Reba McEntire - She Thinks His Name Was John
TTITLE16=Judds, The - Love Can Build A Bridge
TTITLE17=Elvis Presley - Heartbreak Hotel
TTITLE18=Lorrie Morgan - Something In Red
TTITLE19=John MichaelMontgomery  - Sold (The Grundy County Auction Icident)
EXTD=
EXTT0=
EXTT1=
EXTT2=
EXTT3=
EXTT4=
EXTT5=
EXTT6=
EXTT7=
EXTT8=
EXTT9=
EXTT10=
EXTT11=
EXTT12=
EXTT13=
EXTT14=
EXTT15=
EXTT16=
EXTT17=
EXTT18=
EXTT19=
PLAYORDER=
